<mxfile host="Electron" modified="2024-04-13T09:48:50.308Z" agent="Mozilla/5.0 (Macintosh; Intel Mac OS X 10_15_7) AppleWebKit/537.36 (KHTML, like Gecko) draw.io/22.1.18 Chrome/120.0.6099.199 Electron/28.1.2 Safari/537.36" etag="OXzjsE1DNL4wWxsf5l3t" version="22.1.18" type="device">
  <diagram name="第 1 页" id="pyjEM-jicQO8_g4XQQeG">
    <mxGraphModel dx="852" dy="567" grid="0" gridSize="10" guides="1" tooltips="1" connect="1" arrows="1" fold="1" page="1" pageScale="1" pageWidth="1169" pageHeight="1654" math="0" shadow="0">
      <root>
        <mxCell id="0" />
        <mxCell id="1" parent="0" />
        <mxCell id="lEOrUBpPEX8reO3Hevhf-1" value="" style="rounded=0;whiteSpace=wrap;html=1;strokeColor=none;fillColor=none;" parent="1" vertex="1">
          <mxGeometry x="149" y="169" width="600" height="210" as="geometry" />
        </mxCell>
        <mxCell id="tXq19mEmbgu8rRgs-pd1-1" value="" style="rounded=0;whiteSpace=wrap;html=1;fillColor=#90C9E6;opacity=70;strokeColor=#90C9E6;" parent="1" vertex="1">
          <mxGeometry x="155" y="179" width="446" height="120" as="geometry" />
        </mxCell>
        <mxCell id="tXq19mEmbgu8rRgs-pd1-2" value="&lt;font style=&quot;font-size: 18px;&quot; face=&quot;Times New Roman&quot;&gt;&lt;b style=&quot;&quot;&gt;Ray Al&lt;/b&gt;&lt;/font&gt;" style="text;html=1;strokeColor=none;fillColor=none;align=center;verticalAlign=middle;whiteSpace=wrap;rounded=0;" parent="1" vertex="1">
          <mxGeometry x="328" y="182" width="100" height="30" as="geometry" />
        </mxCell>
        <mxCell id="tXq19mEmbgu8rRgs-pd1-4" value="&lt;font face=&quot;Times New Roman&quot; style=&quot;font-size: 18px;&quot;&gt;Data&lt;/font&gt;" style="whiteSpace=wrap;html=1;aspect=fixed;strokeColor=#219EBC;" parent="1" vertex="1">
          <mxGeometry x="165" y="214" width="80" height="80" as="geometry" />
        </mxCell>
        <mxCell id="tXq19mEmbgu8rRgs-pd1-5" value="&lt;font style=&quot;font-size: 18px;&quot; face=&quot;Times New Roman&quot;&gt;Train&lt;/font&gt;" style="whiteSpace=wrap;html=1;aspect=fixed;strokeColor=#219EBC;" parent="1" vertex="1">
          <mxGeometry x="251" y="214" width="80" height="80" as="geometry" />
        </mxCell>
        <mxCell id="tXq19mEmbgu8rRgs-pd1-6" value="&lt;font style=&quot;font-size: 18px;&quot; face=&quot;Times New Roman&quot;&gt;Tune&lt;/font&gt;" style="whiteSpace=wrap;html=1;aspect=fixed;strokeColor=#219EBC;" parent="1" vertex="1">
          <mxGeometry x="337" y="214" width="80" height="80" as="geometry" />
        </mxCell>
        <mxCell id="tXq19mEmbgu8rRgs-pd1-7" value="&lt;font style=&quot;font-size: 18px;&quot; face=&quot;Times New Roman&quot;&gt;Serve&lt;/font&gt;" style="whiteSpace=wrap;html=1;aspect=fixed;strokeColor=#219EBC;" parent="1" vertex="1">
          <mxGeometry x="423" y="214" width="80" height="80" as="geometry" />
        </mxCell>
        <mxCell id="tXq19mEmbgu8rRgs-pd1-8" value="&lt;font style=&quot;font-size: 18px;&quot; face=&quot;Times New Roman&quot;&gt;RLlib&lt;/font&gt;" style="whiteSpace=wrap;html=1;aspect=fixed;strokeColor=#219EBC;" parent="1" vertex="1">
          <mxGeometry x="509" y="214" width="80" height="80" as="geometry" />
        </mxCell>
        <mxCell id="tXq19mEmbgu8rRgs-pd1-10" value="" style="rounded=0;whiteSpace=wrap;html=1;fillColor=#E6E6E6;opacity=90;strokeColor=#E6E6E6;" parent="1" vertex="1">
          <mxGeometry x="155" y="311" width="590" height="60" as="geometry" />
        </mxCell>
        <mxCell id="tXq19mEmbgu8rRgs-pd1-11" value="&lt;font style=&quot;font-size: 18px;&quot; face=&quot;Times New Roman&quot;&gt;Tasks&lt;/font&gt;" style="rounded=0;whiteSpace=wrap;html=1;strokeColor=#B3B3B3;" parent="1" vertex="1">
          <mxGeometry x="254" y="321" width="160" height="40" as="geometry" />
        </mxCell>
        <mxCell id="tXq19mEmbgu8rRgs-pd1-12" value="&lt;font style=&quot;font-size: 18px;&quot; face=&quot;Times New Roman&quot;&gt;Actors&lt;/font&gt;" style="rounded=0;whiteSpace=wrap;html=1;strokeColor=#B3B3B3;" parent="1" vertex="1">
          <mxGeometry x="414" y="321" width="160" height="40" as="geometry" />
        </mxCell>
        <mxCell id="tXq19mEmbgu8rRgs-pd1-13" value="&lt;font style=&quot;font-size: 18px;&quot; face=&quot;Times New Roman&quot;&gt;Objects&lt;/font&gt;" style="rounded=0;whiteSpace=wrap;html=1;strokeColor=#B3B3B3;" parent="1" vertex="1">
          <mxGeometry x="574" y="321" width="160" height="40" as="geometry" />
        </mxCell>
        <mxCell id="tXq19mEmbgu8rRgs-pd1-14" value="" style="rounded=0;whiteSpace=wrap;html=1;fillColor=#E6E6E6;opacity=90;strokeColor=#E6E6E6;" parent="1" vertex="1">
          <mxGeometry x="610" y="179" width="134" height="120" as="geometry" />
        </mxCell>
        <mxCell id="tXq19mEmbgu8rRgs-pd1-17" value="&lt;font style=&quot;font-size: 18px;&quot; face=&quot;Times New Roman&quot;&gt;其他应用&lt;/font&gt;" style="rounded=0;whiteSpace=wrap;html=1;strokeColor=#219EBC;dashed=1;fillColor=#FFFFFF;" parent="1" vertex="1">
          <mxGeometry x="618" y="210" width="118" height="80" as="geometry" />
        </mxCell>
        <mxCell id="6316pqE__n6SxeSTfrJy-2" value="&lt;font style=&quot;font-size: 18px;&quot; face=&quot;Times New Roman&quot;&gt;&lt;b style=&quot;&quot;&gt;Ray Core&lt;/b&gt;&lt;/font&gt;" style="text;html=1;strokeColor=none;fillColor=none;align=center;verticalAlign=middle;whiteSpace=wrap;rounded=0;" parent="1" vertex="1">
          <mxGeometry x="158" y="326" width="100" height="30" as="geometry" />
        </mxCell>
      </root>
    </mxGraphModel>
  </diagram>
</mxfile>
